<?xml version="1.0" standalone="no"?>
<!DOCTYPE svg PUBLIC "-//W3C//DTD SVG 20010904//EN"
 "http://www.w3.org/TR/2001/REC-SVG-20010904/DTD/svg10.dtd">
<svg version="1.0" xmlns="http://www.w3.org/2000/svg"
 width="1024.000000pt" height="1024.000000pt" viewBox="0 0 1024.000000 1024.000000"
 preserveAspectRatio="xMidYMid meet">

<g transform="translate(0.000000,1024.000000) scale(0.100000,-0.100000)"
fill="#000000" stroke="none">
<path d="M4880 8508 c-495 -34 -1028 -207 -1485 -483 -576 -349 -1075 -922
-1347 -1547 -107 -247 -207 -596 -248 -863 -120 -788 71 -1664 503 -2310 384
-573 856 -965 1507 -1253 269 -118 579 -203 910 -249 182 -25 655 -25 835 0
702 99 1353 402 1837 855 508 476 822 999 982 1639 68 269 95 461 103 733 27
897 -296 1749 -916 2418 -367 394 -839 705 -1344 883 -425 150 -873 210 -1337
177z m631 -178 c367 -49 673 -141 985 -298 635 -318 1125 -796 1447 -1412 193
-369 322 -806 362 -1226 18 -185 19 -273 5 -455 -52 -680 -275 -1259 -691
-1792 -208 -266 -547 -565 -840 -738 -371 -219 -763 -362 -1180 -431 -117 -19
-173 -22 -444 -23 -325 0 -383 5 -615 51 -294 58 -523 135 -795 268 -387 188
-648 376 -932 669 -448 465 -735 1039 -838 1682 -73 451 -58 814 51 1256 149
608 445 1124 900 1570 343 335 698 556 1159 723 227 82 566 154 818 175 157
13 427 5 608 -19z"/>
<path d="M4975 8264 c-214 -21 -274 -28 -365 -45 -296 -55 -589 -153 -855
-286 -825 -414 -1457 -1224 -1654 -2123 -103 -469 -103 -857 -1 -1355 57 -280
182 -598 344 -875 231 -395 590 -774 959 -1014 917 -595 1956 -698 2917 -290
730 311 1340 912 1647 1624 294 679 334 1461 111 2158 -264 827 -831 1493
-1603 1882 -332 167 -621 255 -1000 305 -118 15 -421 27 -500 19z m-22 -358
c-4 -6 -23 -33 -44 -61 -48 -65 -105 -172 -119 -224 -6 -23 -16 -83 -23 -133
l-12 -91 -27 39 c-72 107 -186 190 -325 234 -51 17 -97 30 -102 30 -12 0 -78
-149 -97 -217 -8 -32 -18 -90 -21 -129 l-6 -72 -36 -6 c-20 -3 -78 -6 -130 -6
l-94 0 5 -137 c5 -136 27 -261 54 -315 16 -31 9 -35 -23 -13 -60 42 -304 80
-453 70 -84 -6 -382 -44 -388 -50 -2 -2 8 -51 22 -110 31 -128 91 -282 149
-379 41 -70 148 -187 216 -237 l35 -26 -75 -43 c-70 -42 -269 -224 -269 -247
0 -14 272 -147 357 -174 l72 -22 -44 -61 c-41 -58 -96 -172 -110 -227 -6 -24
-3 -26 47 -38 29 -6 94 -14 143 -18 182 -12 310 54 355 183 9 27 14 30 45 26
l35 -4 0 -113 0 -112 -34 -37 c-60 -63 -59 -170 1 -231 115 -115 307 2 263
160 -7 25 -26 60 -41 77 -25 25 -29 39 -29 84 0 30 3 54 7 54 3 0 61 -28 127
-63 250 -131 373 -228 429 -338 22 -45 27 -67 27 -130 l0 -76 -103 -6 c-194
-12 -497 -76 -623 -132 -38 -17 -61 -22 -72 -16 -32 17 -294 102 -375 121
-333 81 -798 85 -1364 12 l-62 -8 -5 35 c-41 265 -32 709 19 956 44 215 158
571 178 558 6 -4 7 -1 3 6 -9 13 12 73 23 67 3 -2 7 7 7 21 1 13 10 33 20 45
11 11 18 22 17 24 -8 12 -1 24 9 18 7 -4 8 -3 4 4 -4 7 -1 21 7 33 11 15 16
17 21 7 3 -7 3 0 0 17 -3 16 -2 26 2 22 4 -4 8 -31 9 -59 1 -29 0 -47 -3 -40
-3 9 -7 8 -16 -1 -18 -17 21 -38 47 -25 13 7 24 5 38 -8 18 -16 19 -16 19 4 0
18 -6 22 -35 22 -19 0 -35 5 -35 11 0 6 17 9 42 7 38 -2 44 0 61 30 11 18 14
32 8 32 -22 0 -10 19 20 34 l32 16 -6 -48 c-5 -40 -4 -43 4 -17 23 69 29 78
43 66 10 -8 16 -8 23 1 15 21 34 70 24 64 -4 -3 -14 -20 -21 -37 -12 -28 -15
-30 -26 -14 -9 12 -10 25 -2 48 14 40 44 72 51 54 3 -7 6 -2 6 11 1 24 41 47
52 30 3 -5 23 17 43 48 21 31 32 54 26 52 -6 -2 -19 -17 -28 -33 -32 -56 -53
-57 -25 -1 17 33 44 52 68 48 6 -1 19 12 28 28 10 16 38 51 62 77 25 27 45 51
45 56 0 11 254 261 298 294 20 16 39 31 42 34 34 41 313 235 410 284 30 16 62
32 70 37 17 10 122 60 198 95 73 33 327 118 426 142 111 28 237 51 321 59 94
10 95 10 88 -2z m527 -12 c280 -39 545 -128 862 -290 115 -59 293 -175 423
-276 118 -92 368 -348 462 -473 140 -186 153 -205 153 -212 0 -3 11 -20 24
-37 13 -17 26 -41 30 -53 4 -14 12 -20 22 -16 10 3 12 0 8 -10 -3 -8 8 -42 25
-74 17 -32 31 -50 31 -40 0 13 9 17 40 17 36 0 40 3 40 24 0 22 -5 25 -42 28
-32 2 -43 7 -44 21 -1 12 -1 13 3 2 2 -8 14 -15 26 -15 12 0 46 -3 75 -6 48
-6 52 -5 52 15 0 11 -6 21 -14 21 -8 0 -17 11 -20 25 -4 14 -11 23 -16 20 -6
-4 -13 2 -17 12 -4 10 -13 24 -20 31 -8 8 -11 26 -8 43 3 16 1 38 -5 49 -7 14
-7 20 0 20 5 0 13 -18 16 -40 4 -22 10 -40 15 -40 5 0 6 -8 3 -17 -5 -15 -4
-16 5 -3 6 9 7 18 1 24 -6 6 -10 15 -10 20 0 11 12 -6 50 -68 20 -32 21 -38 7
-33 -9 3 -17 2 -17 -3 0 -6 9 -10 21 -10 11 0 18 -4 15 -9 -3 -5 0 -11 8 -14
7 -3 16 -15 19 -26 3 -14 1 -19 -6 -15 -7 3 -2 -3 10 -13 20 -17 86 -147 119
-235 100 -270 170 -539 194 -743 26 -227 22 -568 -9 -750 -6 -40 -7 -40 -51
-40 -25 1 -108 9 -185 18 -232 28 -546 40 -740 27 -274 -18 -443 -52 -713
-144 l-132 -45 -47 20 c-157 67 -513 139 -690 139 l-53 0 0 78 c0 65 5 87 27
133 34 67 118 153 209 212 71 46 326 177 344 177 16 0 12 -108 -4 -117 -54
-31 -74 -158 -36 -221 45 -73 137 -93 215 -47 91 53 102 190 21 264 -25 24
-26 28 -26 138 l0 113 35 0 c32 0 36 -4 55 -49 26 -60 70 -103 135 -133 43
-20 66 -23 165 -23 118 0 250 20 250 37 0 21 -79 178 -120 237 -23 35 -40 64
-38 65 1 2 37 16 78 31 106 39 340 157 340 171 0 22 -191 193 -267 241 l-75
47 28 20 c51 36 146 130 185 183 73 98 146 265 189 432 11 44 23 86 26 95 7
19 -31 29 -191 50 -198 25 -245 27 -362 16 -106 -10 -277 -50 -297 -71 -22
-21 -22 -5 0 72 28 94 45 251 37 338 l-6 61 -111 2 c-61 0 -118 1 -126 2 -11
1 -17 20 -22 81 -10 109 -24 166 -66 260 -20 44 -37 82 -38 84 -7 9 -151 -34
-212 -64 -96 -46 -161 -104 -238 -210 l-21 -29 -1 52 c-3 132 -63 289 -155
410 l-44 59 46 -4 c25 -2 93 -11 151 -19z m-260 -162 c64 -96 94 -185 94 -285
1 -60 -3 -81 -15 -90 -8 -7 -18 -20 -22 -29 -7 -20 -22 -23 -32 -8 -3 6 -20
-3 -38 -20 -38 -36 -47 -37 -47 -7 0 12 -10 83 -22 157 -25 153 -28 150 -49
-47 -7 -65 -17 -113 -23 -113 -5 0 -34 25 -62 56 -42 45 -53 52 -57 37 -3 -15
-6 -13 -16 11 -9 21 -9 48 -1 102 15 109 74 230 163 331 l31 35 24 -28 c13
-16 46 -62 72 -102z m-763 -244 c81 -39 147 -101 156 -147 13 -63 5 -161 -12
-161 -4 0 -5 17 -3 38 l5 37 -22 -19 c-20 -18 -22 -18 -41 -1 -11 10 -32 38
-46 62 -14 25 -27 43 -29 41 -3 -2 5 -32 15 -67 27 -85 26 -104 -2 -95 -31 9
-73 39 -95 68 -10 12 -24 21 -31 18 -9 -3 -12 13 -12 58 0 68 27 200 40 200 5
0 40 -15 77 -32z m1423 -5 c14 -46 25 -193 17 -226 -8 -30 -54 -84 -54 -63 0
9 4 16 9 16 4 0 8 4 8 10 0 5 -26 -6 -57 -25 -32 -19 -61 -35 -65 -35 -4 0 -3
12 3 27 21 55 38 147 30 161 -6 11 -10 7 -15 -14 -11 -43 -55 -114 -71 -114
-7 0 -23 12 -35 28 l-21 27 5 -54 c7 -65 -1 -63 -13 5 -15 79 2 129 68 195 38
37 74 63 111 77 30 11 58 21 62 21 4 1 12 -16 18 -36z m1015 -23 c3 -6 -1 -7
-9 -4 -18 7 -21 14 -7 14 6 0 13 -4 16 -10z m-1922 -100 c3 -11 1 -18 -4 -14
-5 3 -9 12 -9 20 0 20 7 17 13 -6z m-65 -224 c44 -54 62 -98 62 -153 0 -40
-22 -113 -34 -113 -3 0 -3 24 0 53 l5 52 -22 -35 c-20 -32 -22 -33 -35 -16 -7
10 -21 44 -31 75 -18 55 -18 55 -21 21 -2 -19 -2 -60 0 -92 2 -32 -1 -58 -5
-58 -41 0 -117 88 -117 135 0 48 25 120 61 180 l33 54 35 -31 c20 -17 51 -49
69 -72z m568 42 c40 -68 56 -119 56 -178 0 -53 -8 -74 -24 -64 -7 4 -8 2 -4
-4 4 -7 2 -20 -4 -29 -11 -17 -11 -17 -6 0 7 23 -7 22 -30 -4 -10 -11 -27 -25
-38 -31 -18 -10 -19 -7 -13 80 4 56 3 93 -3 97 -6 3 -10 -3 -10 -14 0 -10 -9
-41 -21 -68 -18 -43 -22 -46 -33 -30 -12 15 -14 13 -20 -24 -8 -50 -24 -47
-43 7 -30 82 4 174 95 261 31 29 59 53 62 53 3 0 19 -24 36 -52z m-1076 2 c6
-11 8 -20 6 -20 -3 0 -10 9 -16 20 -6 11 -8 20 -6 20 3 0 10 -9 16 -20z m-135
-85 c114 -42 169 -87 204 -165 19 -41 30 -150 13 -124 -10 16 -74 54 -90 54
-8 0 -27 9 -43 21 -16 11 -29 16 -29 10 0 -5 5 -13 10 -16 6 -3 10 -11 10 -16
0 -5 -12 -2 -27 7 -16 9 1 -11 36 -45 34 -34 61 -65 58 -67 -3 -3 -31 -1 -63
5 -45 9 -60 8 -66 -1 -5 -9 -11 -9 -15 -3 -5 6 -15 16 -24 23 -14 11 -17 10
-15 -5 0 -10 12 -24 24 -31 13 -8 21 -16 18 -19 -10 -11 -88 51 -111 88 -33
51 -63 156 -71 245 l-7 77 63 -7 c35 -4 91 -18 125 -31z m1895 -12 c-1 -137
-34 -242 -96 -308 -30 -32 -38 -36 -67 -30 -17 4 -35 12 -39 18 -3 6 -26 8
-57 4 -28 -3 -51 -2 -51 3 0 5 28 30 61 57 113 89 110 85 60 68 -57 -20 -64
-19 -58 6 5 19 2 18 -26 -8 -18 -16 -56 -46 -84 -66 l-53 -37 0 39 c0 140 129
259 315 290 96 16 95 17 95 -36z m-1025 -45 c-12 -39 -25 -44 -25 -10 0 22 5
32 16 32 11 0 14 -6 9 -22z m-2265 -58 c-6 -11 -13 -20 -16 -20 -2 0 0 9 6 20
6 11 13 20 16 20 2 0 0 -9 -6 -20z m4554 -49 c32 -41 42 -61 35 -72 -12 -20
-11 -29 4 -26 6 1 12 -4 12 -12 0 -8 -7 -15 -16 -16 -12 -2 -15 5 -14 29 2 17
-1 36 -5 41 -5 6 -9 13 -9 17 -3 17 -44 78 -53 78 -5 0 -6 -6 -2 -12 4 -7 3
-10 -1 -5 -11 10 -14 48 -4 41 5 -3 29 -31 53 -63z m-2772 -23 c22 -65 77
-146 130 -194 l40 -36 -23 -24 c-20 -21 -24 -22 -38 -10 -9 8 -40 30 -70 50
l-54 35 -2 88 c-1 48 -5 104 -10 123 -11 50 5 30 27 -32z m958 -5 c-6 -26 -10
-75 -9 -110 2 -63 2 -64 -32 -85 -19 -11 -48 -34 -66 -50 l-32 -31 -25 29 -24
29 62 65 c57 59 124 172 127 211 0 11 2 11 6 1 3 -7 0 -34 -7 -59z m-2540 43
c0 -2 -7 -9 -15 -16 -13 -11 -14 -10 -9 4 5 14 24 23 24 12z m4301 -59 c-10
-9 -11 -8 -5 6 3 10 9 15 12 12 3 -3 0 -11 -7 -18z m-4571 -1 c0 -2 -8 -10
-17 -17 -16 -13 -17 -12 -4 4 13 16 21 21 21 13z m4470 -52 c0 -3 -7 -1 -15 6
-8 7 -15 17 -15 22 0 5 7 3 15 -6 8 -8 15 -18 15 -22z m236 -11 c15 -21 21
-32 13 -26 -9 7 -19 11 -22 8 -4 -3 -5 -2 -2 2 3 3 -2 17 -10 30 -24 36 -10
27 21 -14z m-4736 23 c0 -2 -8 -10 -17 -17 -16 -13 -17 -12 -4 4 13 16 21 21
21 13z m2451 -137 c121 -153 159 -245 159 -384 0 -84 -21 -179 -45 -204 -12
-12 -13 -11 -9 6 3 12 1 24 -5 27 -7 4 -9 1 -5 -8 5 -14 2 -14 -26 0 -32 16
-32 16 -74 -25 l-42 -42 -13 113 c-15 130 -41 301 -46 306 -6 7 -31 -60 -49
-130 -11 -44 -15 -98 -14 -166 2 -55 -1 -104 -5 -108 -4 -4 -41 25 -82 66 -41
41 -75 70 -75 63 0 -6 7 -16 15 -23 8 -7 15 -18 15 -24 0 -6 -5 -4 -10 4 -8
12 -12 13 -19 2 -10 -17 -17 6 -26 98 -15 146 34 272 172 445 83 103 87 106
102 87 9 -11 46 -57 82 -103z m-2515 13 c-17 -16 -18 -16 -5 5 7 12 15 20 18
17 3 -2 -3 -12 -13 -22z m1059 -27 c200 -43 320 -172 333 -360 4 -64 3 -68
-12 -56 -9 8 -15 20 -12 28 3 8 2 12 -2 9 -5 -3 -31 15 -59 39 -28 24 -53 42
-56 39 -3 -3 -43 14 -89 39 -46 25 -93 48 -106 52 -23 7 -23 6 -8 -22 8 -15
51 -64 95 -108 45 -44 81 -82 81 -85 0 -11 -186 12 -238 29 -29 10 -55 14 -58
10 -3 -5 8 -12 23 -15 l28 -7 -30 -13 -30 -13 35 -1 c37 -2 34 -4 -14 -15 -21
-4 -26 -9 -17 -14 7 -5 12 -12 11 -17 -1 -5 4 -10 11 -13 7 -2 9 1 5 8 -4 6
-3 11 3 11 5 0 13 -4 16 -10 3 -5 1 -10 -6 -10 -8 0 -7 -5 2 -17 12 -16 10
-15 -15 1 -17 10 -44 31 -60 47 -17 15 -40 36 -51 46 -72 64 -150 196 -194
326 l-29 86 46 6 c26 4 54 8 62 9 46 10 273 4 335 -9z m3133 -1 c28 -8 27 -17
-25 -148 -33 -84 -96 -192 -140 -241 -51 -57 -188 -155 -217 -155 -10 0 7 39
30 65 13 15 21 32 18 36 -3 5 4 9 14 9 12 0 22 9 25 22 4 12 5 23 4 24 -1 1
-38 -6 -82 -16 -83 -19 -225 -31 -225 -19 0 4 42 47 94 95 52 47 97 95 99 105
6 22 8 22 -31 8 -18 -6 -29 -15 -26 -20 3 -5 -5 -9 -17 -9 -26 0 -155 -56
-183 -79 -10 -9 -36 -38 -57 -64 l-39 -49 0 49 c0 112 58 238 136 298 48 37
132 74 206 90 64 15 365 14 416 -1z m-4257 -48 c-7 -8 -9 -21 -5 -28 4 -7 3
-9 -1 -5 -5 4 -15 -3 -22 -15 -7 -13 -12 -18 -13 -11 0 16 41 85 48 79 3 -3
-1 -12 -7 -20z m4780 -16 c5 0 9 -8 9 -17 -1 -16 -2 -16 -15 1 -8 11 -14 27
-14 35 1 13 2 12 6 -1 2 -10 9 -18 14 -18z m59 -60 c0 -4 -9 -10 -19 -13 -22
-5 -30 14 -22 47 4 18 5 18 23 -3 10 -13 18 -27 18 -31z m-2919 17 c51 -21
106 -73 117 -110 6 -18 13 -54 16 -82 4 -40 3 -47 -7 -35 -14 18 -128 97 -152
106 -15 6 -16 4 -5 -17 7 -13 24 -37 36 -52 13 -16 24 -33 24 -39 0 -17 -73
-1 -126 29 -51 28 -51 24 0 -34 11 -13 14 -23 8 -23 -7 0 -12 -4 -12 -10 0 -5
7 -7 15 -4 8 4 15 1 15 -4 0 -6 -9 -14 -20 -17 -22 -7 -28 -25 -8 -25 6 0 8
-3 5 -6 -9 -9 -80 38 -117 78 -33 34 -90 128 -90 147 0 7 -9 31 -20 53 -11 23
-19 42 -17 43 1 2 38 7 82 13 100 13 210 8 256 -11z m1357 11 c97 -11 115 -19
94 -43 -5 -6 -19 -37 -32 -70 -41 -104 -73 -145 -155 -198 -37 -24 -160 -54
-150 -36 3 4 -1 9 -7 12 -7 3 5 4 27 2 22 -1 31 0 21 2 -11 3 -26 11 -33 19
-12 12 -12 14 1 14 37 0 156 77 156 101 0 4 -26 -4 -57 -17 -32 -13 -78 -24
-101 -24 l-44 0 41 46 c38 43 49 64 35 64 -8 0 -125 -80 -153 -104 l-24 -21 6
54 c11 99 73 172 166 197 60 16 85 17 209 2z m-3325 -47 c-3 -11 -11 -22 -19
-25 -18 -7 -18 2 1 21 8 8 12 19 9 25 -4 6 -2 8 4 5 5 -4 8 -16 5 -26z m37 -1
c0 -5 -4 -10 -10 -10 -5 0 -10 5 -10 10 0 6 5 10 10 10 6 0 10 -4 10 -10z
m4857 -52 c-3 -8 -6 -5 -6 6 -1 11 2 17 5 13 3 -3 4 -12 1 -19z m-4892 2 c-3
-5 -12 -10 -18 -10 -7 0 -6 4 3 10 19 12 23 12 15 0z m1078 -267 c-7 -2 -19
-2 -25 0 -7 3 -2 5 12 5 14 0 19 -2 13 -5z m729 -94 c63 -15 101 -30 131 -53
47 -36 92 -98 102 -140 l6 -28 -48 27 c-26 16 -52 33 -56 39 -5 7 -6 3 -3 -8
4 -11 1 -23 -5 -27 -8 -4 -5 -13 10 -28 27 -27 27 -32 -1 -27 -13 3 -43 7 -68
10 -39 5 -43 4 -27 -8 21 -16 22 -26 3 -26 -8 0 -16 -6 -18 -12 -7 -20 -77 63
-87 102 -5 19 -12 64 -16 100 -3 35 -11 72 -16 82 -12 22 -15 22 93 -3z m511
6 c-3 -9 -8 -14 -10 -11 -3 3 -2 9 2 15 9 16 15 13 8 -4z m1008 -13 c-6 -12
-11 -46 -11 -78 0 -109 -47 -194 -109 -194 -34 0 -45 19 -22 38 28 22 -50 3
-84 -22 -26 -18 -23 -12 17 39 36 45 44 61 32 63 -8 2 -24 -4 -35 -14 -22 -19
-24 -13 -8 19 11 20 9 19 -13 -3 -13 -14 -39 -38 -57 -54 l-34 -29 7 39 c13
72 55 126 126 162 55 28 188 66 198 57 2 -2 -1 -12 -7 -23z m-651 4 c0 -2 -8
-10 -17 -17 -16 -13 -17 -12 -4 4 13 16 21 21 21 13z m958 -97 c-4 -62 -24
-100 -40 -77 -6 9 -8 6 -4 -8 5 -17 1 -20 -29 -21 -40 -1 -40 -2 -20 62 18 60
13 70 -8 16 -17 -42 -37 -62 -37 -37 0 22 -12 20 -38 -4 l-22 -21 0 26 c0 36
35 102 62 116 13 7 47 17 78 23 64 13 64 13 58 -75z m-2090 54 c34 -16 54 -46
66 -98 6 -29 6 -29 -9 -10 -13 17 -17 18 -25 5 -8 -12 -11 -12 -28 3 -26 24
-28 22 -24 -24 4 -39 3 -40 -18 -29 -20 11 -21 10 -9 -11 12 -23 12 -23 -12
-8 -44 30 -61 64 -66 134 l-6 67 49 -7 c27 -4 64 -14 82 -22z m790 -225 c31
-23 83 -61 115 -85 l57 -43 0 55 c0 48 2 55 20 55 15 0 20 -7 20 -27 1 -78 3
-78 122 10 97 71 186 159 217 214 5 10 12 15 16 11 4 -3 -5 -26 -18 -50 -24
-40 -53 -124 -49 -140 1 -5 -2 -8 -7 -8 -5 0 -45 -35 -89 -77 -110 -106 -137
-163 -135 -288 1 -49 10 -137 20 -193 16 -89 21 -102 32 -88 8 9 79 51 160 93
238 124 267 148 372 294 60 84 196 225 207 215 2 -3 -19 -33 -46 -68 -55 -71
-90 -129 -139 -230 -32 -68 -33 -70 -11 -64 57 16 132 27 170 24 41 -3 39 -4
-55 -35 -54 -18 -105 -33 -115 -33 -25 0 -119 -50 -175 -93 -26 -20 -62 -43
-80 -52 -101 -48 -229 -183 -274 -290 -34 -81 -36 -127 -13 -335 32 -296 76
-394 215 -483 l50 -32 180 -7 c252 -9 367 -43 565 -166 78 -49 78 -66 -1 -37
-24 9 -48 17 -54 18 -5 2 -16 6 -22 10 -7 5 -18 5 -25 1 -6 -4 -8 -3 -5 3 4 6
-13 20 -38 32 -48 23 -69 27 -45 10 12 -9 12 -10 -3 -5 -10 3 -24 6 -30 6 -7
0 -6 5 3 11 12 9 12 10 -4 5 -11 -4 -65 2 -120 13 -56 11 -141 22 -191 24
l-90 5 50 -25 c104 -53 206 -154 225 -222 14 -50 12 -71 -3 -43 -7 12 -16 19
-21 15 -4 -4 -4 0 -1 8 8 22 -83 111 -166 160 -37 22 -102 53 -145 70 -44 17
-97 41 -120 54 -49 29 -140 122 -136 138 2 7 0 9 -4 4 -10 -10 -45 23 -37 36
3 6 1 7 -5 3 -7 -4 -12 -2 -12 4 0 6 -4 9 -9 6 -11 -7 -23 22 -16 35 4 5 -2 6
-11 2 -13 -5 -16 -3 -11 10 4 11 2 14 -7 11 -7 -3 -19 2 -26 11 -15 18 -30 20
-30 2 0 -7 -9 -18 -20 -25 -17 -10 -20 -10 -20 4 0 8 -4 13 -9 10 -5 -3 -11 3
-14 14 -6 22 -27 28 -27 7 0 -7 -21 -42 -46 -77 -57 -80 -74 -97 -45 -46 12
21 20 41 17 43 -2 3 -11 -8 -20 -24 -16 -32 -46 -61 -46 -46 0 5 5 14 12 21 7
7 10 12 7 12 -3 0 -29 -29 -58 -65 -52 -66 -112 -105 -206 -135 -89 -28 -195
-92 -175 -105 6 -4 -14 -30 -50 -63 -37 -35 -74 -83 -95 -122 -37 -70 -39 -70
-25 0 7 40 7 43 -6 25 -14 -19 -14 -19 -14 1 0 39 50 125 101 173 29 28 82 66
118 85 36 20 62 35 56 36 -5 0 -61 -5 -123 -10 -86 -7 -137 -18 -220 -46 -59
-20 -111 -40 -117 -44 -5 -4 -31 -20 -57 -34 -50 -28 -78 -33 -78 -15 0 6 -7
8 -16 5 -35 -13 -64 -18 -64 -10 0 14 177 124 240 150 122 49 207 66 386 73
l172 7 70 47 c131 86 183 185 207 395 27 229 29 302 12 362 -26 87 -85 177
-152 232 -33 27 -72 60 -87 73 -16 13 -28 21 -28 18 0 -3 -42 23 -69 44 -2 1
1 9 7 16 10 11 -5 22 -74 56 -47 23 -102 43 -122 46 -20 3 -77 18 -127 34 -73
24 -84 29 -55 30 19 0 69 -8 110 -18 41 -10 77 -17 79 -15 1 1 -4 13 -13 26
-19 26 -21 42 -4 32 7 -4 8 -3 4 5 -4 6 -11 9 -15 7 -11 -7 -53 83 -45 97 4 7
4 9 -1 5 -4 -4 -35 32 -67 80 -33 48 -67 95 -75 105 -9 9 -12 17 -7 17 18 0
161 -155 228 -246 76 -103 130 -148 281 -231 55 -30 132 -74 171 -98 l72 -42
16 104 c29 188 31 241 8 307 -12 32 -33 73 -47 92 -14 19 -24 38 -21 43 7 10
-48 63 -57 55 -10 -11 -97 65 -97 84 0 10 -16 50 -35 91 -19 40 -35 77 -35 83
0 5 29 -26 65 -71 36 -44 91 -100 123 -123z m-1105 86 c32 -16 87 -63 87 -73
0 -3 -32 -4 -71 -3 -134 7 -194 -21 -69 -31 100 -8 112 -18 53 -44 -43 -19
-68 -26 -168 -49 l-30 -6 24 -9 c14 -6 44 -10 68 -11 24 0 46 -4 49 -9 7 -13
-73 -11 -121 2 -34 9 -200 84 -215 97 -10 8 96 93 149 119 92 46 176 51 244
17z m2797 -1 c65 -23 190 -109 190 -130 0 -23 -281 -135 -298 -119 -1 2 14 13
35 26 43 25 36 33 -37 45 -55 8 -135 44 -123 56 7 6 114 28 148 29 6 0 3 5 -6
10 -9 5 -57 10 -108 11 l-92 2 28 29 c36 39 56 48 112 57 54 9 90 5 151 -16z
m-1669 -190 c13 -16 12 -17 -3 -4 -10 7 -18 15 -18 17 0 8 8 3 21 -13z m-1106
-23 c-3 -5 -12 -10 -18 -10 -7 0 -6 4 3 10 19 12 23 12 15 0z m364 -66 l52
-64 -96 0 -95 0 0 28 c0 15 -9 42 -20 60 -11 18 -20 34 -20 37 0 5 101 11 116
7 6 -2 35 -32 63 -68z m1991 51 c-7 -9 -19 -37 -25 -63 l-12 -47 -93 -3 -93
-3 55 63 c54 62 57 63 114 68 69 6 71 5 54 -15z m-1432 1 c34 -18 75 -62 96
-104 22 -43 37 -125 30 -162 l-6 -29 -32 16 c-102 52 -207 138 -257 209 l-28
42 82 20 c45 11 83 20 85 21 2 0 15 -5 30 -13z m-961 -2 c-3 -3 -12 -4 -19 -1
-8 3 -5 6 6 6 11 1 17 -2 13 -5z m1777 -9 c44 -9 82 -17 84 -20 3 -2 -15 -30
-39 -62 -49 -63 -134 -130 -223 -175 l-59 -30 5 79 c5 88 20 123 77 183 43 45
46 46 155 25z m-1632 -72 c31 -37 31 -47 1 -23 -18 14 -32 28 -32 33 -1 13 16
7 31 -10z m2343 -13 c-16 -16 -31 -28 -33 -25 -9 9 29 55 45 55 13 0 10 -7
-12 -30z m-2407 -67 c20 -5 16 -8 -29 -24 -74 -26 -83 -39 -28 -39 46 0 85
-17 61 -27 -6 -2 -10 -8 -7 -13 8 -13 -65 -72 -82 -66 -8 3 -11 1 -8 -4 3 -6
5 -10 3 -11 -28 -7 -148 -9 -148 -3 0 5 13 32 29 59 61 106 132 149 209 128z
m2583 -22 c40 -27 95 -101 115 -155 7 -17 2 -18 -69 -14 -42 2 -81 8 -87 14
-9 9 -4 10 16 6 38 -7 23 15 -16 23 -31 7 -90 50 -90 65 0 5 26 10 58 12 l57
3 -62 31 c-34 17 -60 34 -56 38 18 17 92 5 134 -23z m-2986 -980 c136 -24 273
-59 280 -72 3 -4 -27 -18 -67 -29 -40 -12 -161 -50 -268 -85 -357 -117 -509
-144 -844 -154 -120 -3 -221 -4 -226 -1 -13 9 -97 286 -89 294 6 6 196 33 354
50 77 9 156 17 175 20 19 2 154 3 300 1 218 -2 286 -6 385 -24z m4175 0 c293
-36 321 -41 316 -60 -3 -9 -15 -50 -26 -91 -11 -41 -29 -100 -39 -130 l-18
-55 -154 -3 c-358 -7 -662 55 -1274 262 -25 8 240 70 395 91 151 21 580 13
800 -14z m-2835 -38 c-4 -21 -13 -52 -20 -69 -12 -30 -16 -31 -86 -38 -41 -3
-123 -16 -184 -27 -60 -11 -118 -21 -127 -22 -10 -1 -14 -5 -9 -10 5 -5 17 -5
27 1 29 15 168 26 159 12 -3 -6 -16 -10 -28 -9 -12 1 -33 1 -47 -1 -19 -2 -16
-4 15 -10 l40 -7 -40 -2 c-22 0 -62 -10 -90 -21 l-50 -19 35 -2 c19 -2 46 -2
60 -1 52 3 -6 -15 -65 -21 -89 -7 -263 -53 -373 -99 -53 -22 -146 -56 -207
-75 -60 -19 -195 -63 -300 -98 -104 -34 -215 -68 -245 -75 -30 -7 -66 -16 -80
-21 -76 -26 -289 -51 -491 -56 l-217 -6 -46 94 c-25 51 -46 99 -46 106 0 10
43 13 189 13 312 0 538 41 886 160 640 218 820 272 1041 309 142 24 171 27
248 29 l58 2 -7 -37z m876 6 c195 -33 326 -70 744 -211 449 -150 475 -158 651
-198 197 -44 342 -60 550 -60 216 0 206 8 142 -120 l-43 -85 -140 -3 c-261 -6
-501 28 -769 109 -200 61 -578 190 -665 228 -79 33 -190 65 -293 82 -35 5 -83
14 -108 19 l-45 9 55 -3 c59 -4 89 11 67 33 -8 8 1 11 34 12 42 1 43 1 14 10
-63 19 -185 41 -315 58 l-134 17 -12 40 c-6 21 -14 52 -18 68 l-7 29 84 -6
c46 -4 140 -16 208 -28z m-951 -173 c0 -3 -4 -8 -10 -11 -5 -3 -10 -1 -10 4 0
6 5 11 10 11 6 0 10 -2 10 -4z m1067 -22 c-3 -3 -12 -4 -19 -1 -8 3 -5 6 6 6
11 1 17 -2 13 -5z m-1305 -16 c-17 -8 -26 -8 -34 0 -9 9 -4 12 23 11 32 0 33
-1 11 -11z m1003 -528 c71 -33 170 -98 161 -107 -5 -5 -283 23 -338 33 -28 6
-28 6 -28 84 l0 79 68 -29 c37 -15 99 -42 137 -60z m-585 5 c0 -52 -4 -77 -12
-80 -7 -2 -80 -11 -163 -20 -82 -8 -162 -17 -177 -20 -80 -13 26 62 198 140
65 29 127 54 137 54 15 1 17 -9 17 -74z m-1091 -40 c26 -13 31 -19 20 -25 -21
-12 -373 -116 -454 -135 -136 -31 -305 -54 -441 -60 -77 -3 -165 -8 -197 -11
-55 -5 -59 -4 -88 27 -16 17 -27 34 -24 37 3 3 27 5 53 3 93 -4 360 20 482 45
184 38 493 126 550 159 22 12 27 11 45 -5 11 -10 35 -25 54 -35z m3174 -110
c187 -38 423 -61 530 -52 l68 6 -20 -32 c-20 -32 -21 -32 -113 -35 -122 -4
-364 14 -508 39 -135 23 -249 52 -457 117 -142 44 -181 62 -133 62 11 0 34 12
51 28 l31 27 189 -62 c117 -39 256 -77 362 -98z m-2085 -92 c-5 -7 -14 -10
-19 -7 -5 3 -9 -1 -9 -10 0 -8 -3 -23 -6 -33 -5 -15 -4 -15 5 -3 24 33 8 -10
-34 -94 -80 -158 -94 -254 -54 -361 27 -72 103 -156 168 -184 124 -53 270 -30
363 57 71 66 100 129 106 225 5 87 -13 150 -75 264 -19 35 -32 70 -29 79 3 8
2 13 -3 10 -5 -3 -11 1 -14 8 -3 8 -1 17 6 20 7 4 8 8 2 11 -69 36 -42 39 147
15 217 -28 237 -30 271 -32 26 -1 40 -18 15 -18 -8 -1 -6 -6 5 -14 10 -8 15
-20 11 -29 -7 -20 74 -57 125 -57 50 0 97 31 106 69 5 23 12 31 28 31 37 0
241 -22 257 -27 8 -3 31 -7 50 -9 19 -2 55 -7 80 -10 25 -4 56 -8 70 -10 14
-2 51 -9 84 -16 46 -10 53 -14 35 -18 -13 -4 16 -6 64 -6 53 1 90 -3 95 -10 6
-10 78 -17 177 -16 l40 0 -30 -13 c-16 -7 -24 -14 -17 -14 6 -1 12 -7 12 -15
0 -11 10 -13 40 -9 26 4 40 2 40 -6 0 -6 9 -11 21 -11 11 0 18 4 15 9 -3 5 1
15 10 22 19 15 154 25 154 10 0 -5 -8 -11 -17 -13 -14 -3 -11 -8 14 -21 18 -9
42 -17 53 -17 12 0 28 -6 35 -14 12 -11 11 -17 -1 -35 -16 -23 -6 -29 15 -8 7
6 1 -6 -13 -28 -36 -54 -65 -75 -96 -69 -14 2 -19 1 -12 -2 21 -10 13 -28 -37
-76 l-49 -48 -75 0 c-54 0 -80 4 -91 15 -16 17 -86 21 -86 5 0 -5 8 -10 18
-11 9 0 -17 -7 -58 -15 -385 -73 -392 -75 -760 -209 -396 -144 -429 -155 -685
-212 -99 -22 -401 -25 -510 -4 -204 39 -391 92 -622 180 -46 17 -120 45 -165
61 -46 17 -92 35 -103 39 -27 11 -240 78 -290 90 -112 29 -274 54 -390 60 -71
4 -139 11 -150 15 -16 6 -17 6 -5 -3 12 -9 9 -11 -16 -11 -34 0 -65 24 -42 32
10 4 10 8 -1 21 -7 10 -18 17 -23 17 -6 0 -5 -7 2 -15 7 -9 8 -15 2 -15 -5 0
-12 7 -16 15 -6 17 19 45 42 46 9 0 12 3 5 5 -6 3 -26 -2 -43 -11 -18 -9 -29
-12 -26 -6 4 6 0 11 -8 11 -8 0 -18 5 -22 12 -4 7 -3 8 4 4 7 -4 19 -3 28 2
11 6 6 9 -22 10 -26 1 -46 10 -66 29 -35 34 -36 53 0 54 23 2 24 2 4 6 -12 2
-20 9 -17 14 4 5 -2 9 -12 10 -10 0 -13 3 -6 6 8 3 3 13 -15 28 l-27 24 38 1
c20 0 37 4 37 8 0 4 16 14 36 21 29 10 38 11 44 1 5 -9 21 -10 51 -5 24 4 76
8 116 9 39 0 75 4 79 9 4 4 23 7 41 7 19 0 32 3 30 8 -3 4 8 8 24 9 35 3 35
-17 -1 -34 -22 -10 -22 -11 -5 -12 22 0 58 23 49 31 -6 7 78 40 92 37 10 -3
85 8 154 21 77 15 173 30 235 36 66 6 78 8 180 23 90 14 85 14 86 -6 1 -17 2
-17 6 0 2 9 9 17 14 17 6 0 7 -4 4 -10 -3 -5 1 -10 9 -10 9 0 16 -6 16 -14 0
-7 7 -19 15 -26 8 -7 12 -16 9 -21 -3 -5 3 -6 12 -2 10 3 15 2 12 -3 -3 -5 16
-10 43 -12 59 -3 103 17 129 61 19 31 20 31 21 7 l0 -25 10 25 c7 17 7 26 0
28 -17 6 -13 19 7 20 9 1 45 2 79 2 35 1 65 6 68 11 4 5 27 9 53 10 26 0 88 6
137 13 114 16 127 16 113 -1z m202 -3 c0 -6 27 -65 60 -132 86 -173 104 -230
90 -286 -15 -60 -36 -90 -81 -113 -109 -55 -244 29 -242 153 1 38 16 80 77
207 42 87 76 164 76 170 0 6 5 11 10 11 6 0 10 -5 10 -10z m-1850 -180 c0 -5
-7 -10 -16 -10 -8 0 -12 5 -9 10 3 6 10 10 16 10 5 0 9 -4 9 -10z m3788 -7
c-10 -2 -28 -2 -40 0 -13 2 -5 4 17 4 22 1 32 -1 23 -4z m305 -13 c9 0 17 -4
17 -10 0 -5 -7 -10 -16 -10 -11 0 -14 -5 -10 -17 5 -13 0 -11 -20 7 -15 14
-24 20 -21 13 5 -8 1 -8 -18 0 -37 18 -30 30 13 23 20 -3 45 -6 55 -6z"/>
<path d="M2745 6450 c-9 -16 -13 -30 -11 -30 3 0 12 14 21 30 9 17 13 30 11
30 -3 0 -12 -13 -21 -30z"/>
<path d="M2494 6365 c-17 -13 -17 -14 -2 -15 9 0 20 5 23 11 11 17 0 20 -21 4z"/>
<path d="M2530 6320 c0 -20 5 -30 15 -30 17 0 18 4 9 38 -9 32 -24 27 -24 -8z"/>
<path d="M2460 6284 c0 -8 -5 -12 -11 -8 -8 4 -8 0 0 -15 15 -27 16 -27 18 9
1 17 0 30 -2 30 -3 0 -5 -7 -5 -16z"/>
<path d="M2427 6217 c-4 -10 -7 -26 -7 -35 1 -15 2 -15 11 1 6 10 9 25 7 35
-3 16 -4 15 -11 -1z"/>
<path d="M3062 5936 c10 -7 14 -17 10 -21 -4 -5 -1 -5 6 -1 10 6 10 11 1 22
-6 8 -17 14 -23 14 -6 0 -3 -7 6 -14z"/>
<path d="M3016 5921 c-10 -11 -16 -25 -15 -30 2 -6 12 3 21 19 20 35 18 38 -6
11z"/>
<path d="M3055 5840 c-3 -5 -1 -10 4 -10 6 0 11 5 11 10 0 6 -2 10 -4 10 -3 0
-8 -4 -11 -10z"/>
<path d="M6713 7046 c-6 -7 -8 -18 -4 -24 4 -6 11 -1 18 14 12 26 5 31 -14 10z"/>
<path d="M7613 6595 c-3 -9 -3 -18 -1 -21 3 -3 8 4 11 16 6 23 -1 27 -10 5z"/>
<path d="M7706 6447 c3 -10 9 -15 12 -12 3 3 0 11 -7 18 -10 9 -11 8 -5 -6z"/>
<path d="M7686 6424 c-4 -9 -4 -19 -1 -22 2 -3 7 3 11 12 4 9 4 19 1 22 -2 3
-7 -3 -11 -12z"/>
<path d="M7567 6374 c19 -29 20 -29 25 -1 3 17 -1 22 -18 23 -22 2 -22 1 -7
-22z"/>
<path d="M7549 6335 c14 -30 27 -52 30 -50 7 8 -30 93 -43 98 -7 3 -2 -17 13
-48z"/>
<path d="M7630 6310 c0 -5 5 -10 10 -10 6 0 10 5 10 10 0 6 -4 10 -10 10 -5 0
-10 -4 -10 -10z"/>
<path d="M7596 6243 c-6 -14 -5 -15 5 -6 7 7 10 15 7 18 -3 3 -9 -2 -12 -12z"/>
<path d="M7673 6247 c4 -10 7 -34 7 -53 0 -19 5 -34 10 -34 17 0 11 70 -7 88
-16 16 -16 16 -10 -1z"/>
<path d="M7770 6184 c0 -8 5 -12 10 -9 6 4 8 11 5 16 -9 14 -15 11 -15 -7z"/>
<path d="M7621 6174 c0 -11 3 -14 6 -6 3 7 2 16 -1 19 -3 4 -6 -2 -5 -13z"/>
<path d="M7701 5924 c0 -11 3 -14 6 -6 3 7 2 16 -1 19 -3 4 -6 -2 -5 -13z"/>
<path d="M5255 7330 c3 -5 8 -10 11 -10 2 0 4 5 4 10 0 6 -5 10 -11 10 -5 0
-7 -4 -4 -10z"/>
<path d="M6015 6760 c-16 -7 -17 -9 -3 -9 9 -1 20 4 23 9 7 11 7 11 -20 0z"/>
<path d="M5277 6183 c-4 -3 -7 -11 -7 -17 0 -6 5 -5 12 2 6 6 9 14 7 17 -3 3
-9 2 -12 -2z"/>
<path d="M6560 6200 c0 -5 5 -10 11 -10 5 0 7 5 4 10 -3 6 -8 10 -11 10 -2 0
-4 -4 -4 -10z"/>
<path d="M4410 5880 c0 -5 5 -10 11 -10 5 0 7 5 4 10 -3 6 -8 10 -11 10 -2 0
-4 -4 -4 -10z"/>
<path d="M4420 5581 c0 -6 4 -13 10 -16 6 -3 7 1 4 9 -7 18 -14 21 -14 7z"/>
<path d="M4690 5286 c0 -2 7 -7 16 -10 8 -3 12 -2 9 4 -6 10 -25 14 -25 6z"/>
<path d="M5890 4046 c0 -9 30 -14 35 -6 4 6 -3 10 -14 10 -12 0 -21 -2 -21 -4z"/>
<path d="M5948 4033 c7 -3 16 -2 19 1 4 3 -2 6 -13 5 -11 0 -14 -3 -6 -6z"/>
<path d="M4469 3913 c-1 -4 -1 -12 0 -17 1 -5 -5 -6 -13 -3 -8 3 -20 -2 -27
-11 -11 -14 -11 -15 0 -5 7 6 19 9 26 7 16 -7 40 22 25 31 -5 3 -11 3 -11 -2z"/>
<path d="M3784 5424 c-18 -14 -18 -15 4 -4 12 6 22 13 22 15 0 8 -5 6 -26 -11z"/>
<path d="M4283 4333 c9 -2 23 -2 30 0 6 3 -1 5 -18 5 -16 0 -22 -2 -12 -5z"/>
<path d="M5945 4330 c27 -12 43 -12 25 0 -8 5 -22 9 -30 9 -10 0 -8 -3 5 -9z"/>
<path d="M6008 4313 c7 -3 16 -2 19 1 4 3 -2 6 -13 5 -11 0 -14 -3 -6 -6z"/>
<path d="M4477 3419 c7 -7 15 -10 18 -7 3 3 -2 9 -12 12 -14 6 -15 5 -6 -5z"/>
<path d="M4528 3423 c7 -3 16 -2 19 1 4 3 -2 6 -13 5 -11 0 -14 -3 -6 -6z"/>
<path d="M5658 3423 c7 -3 16 -2 19 1 4 3 -2 6 -13 5 -11 0 -14 -3 -6 -6z"/>
<path d="M5698 3423 c7 -3 16 -2 19 1 4 3 -2 6 -13 5 -11 0 -14 -3 -6 -6z"/>
<path d="M5750 3420 c-6 -4 5 -7 25 -8 19 -1 35 0 35 2 0 8 -49 13 -60 6z"/>
<path d="M3570 3406 c0 -2 16 -6 35 -8 19 -2 35 0 35 4 0 4 -16 8 -35 8 -19 0
-35 -2 -35 -4z"/>
<path d="M3840 3391 c0 -17 -6 -18 -52 -15 -29 2 -70 7 -92 10 -30 5 -37 4
-31 -6 6 -10 0 -12 -29 -7 -22 3 -34 2 -31 -4 4 -5 16 -9 27 -9 12 0 19 -2 16
-5 -8 -8 -69 -17 -118 -18 -25 0 -37 -2 -27 -4 9 -3 17 -8 17 -13 0 -4 17 -4
38 0 20 5 66 12 102 16 53 6 60 9 40 16 -19 6 -16 7 14 3 51 -6 157 5 150 16
-2 4 15 13 38 19 67 17 67 18 1 19 -55 1 -63 -1 -63 -18z"/>
<path d="M6703 3393 c9 -2 23 -2 30 0 6 3 -1 5 -18 5 -16 0 -22 -2 -12 -5z"/>
<path d="M6143 3383 c9 -2 25 -2 35 0 9 3 1 5 -18 5 -19 0 -27 -2 -17 -5z"/>
<path d="M6253 3383 c9 -2 23 -2 30 0 6 3 -1 5 -18 5 -16 0 -22 -2 -12 -5z"/>
<path d="M3452 3372 c-8 -5 1 -8 22 -8 19 1 32 4 29 9 -6 9 -35 9 -51 -1z"/>
<path d="M3565 3370 c-3 -5 1 -10 10 -10 9 0 13 5 10 10 -3 6 -8 10 -10 10 -2
0 -7 -4 -10 -10z"/>
<path d="M6708 3373 c12 -2 32 -2 45 0 12 2 2 4 -23 4 -25 0 -35 -2 -22 -4z"/>
<path d="M6560 3362 c0 -7 -14 -9 -37 -5 -21 3 -35 3 -32 0 3 -4 34 -11 70
-16 35 -6 81 -13 102 -17 37 -7 55 10 20 19 -10 2 6 4 35 5 29 0 56 3 60 7 4
3 -27 6 -68 6 -41 -1 -92 2 -112 5 -24 4 -38 2 -38 -4z"/>
<path d="M6826 3335 c-4 -11 2 -15 24 -15 17 0 30 -4 30 -9 0 -14 -74 0 -83
16 -4 7 -18 13 -30 12 -21 -1 -21 -1 3 -10 21 -7 19 -8 -12 -5 -21 3 -40 0
-43 -5 -4 -5 5 -9 19 -9 26 0 158 -23 234 -40 30 -7 48 -7 60 1 15 9 15 10 -1
5 -26 -8 -67 4 -67 19 0 15 -80 55 -109 55 -10 0 -21 -7 -25 -15z"/>
<path d="M3195 3330 c-3 -5 -15 -10 -26 -10 -18 0 -19 -2 -5 -15 17 -17 36
-20 36 -5 0 6 18 10 40 10 29 0 40 4 40 15 0 17 -75 22 -85 5z"/>
<path d="M3368 3323 c7 -3 16 -2 19 1 4 3 -2 6 -13 5 -11 0 -14 -3 -6 -6z"/>
<path d="M3083 3313 c-54 -5 -61 -33 -9 -33 47 0 72 -10 54 -21 -20 -13 17
-10 87 6 l60 15 -52 -5 c-50 -5 -83 9 -83 36 0 5 -3 8 -7 7 -5 -1 -27 -3 -50
-5z"/>
<path d="M3478 3313 c7 -3 16 -2 19 1 4 3 -2 6 -13 5 -11 0 -14 -3 -6 -6z"/>
<path d="M4233 3301 c-51 -24 -73 -63 -73 -132 0 -48 3 -55 40 -91 35 -33 47
-38 87 -38 79 0 143 60 143 134 0 41 -37 104 -73 126 -40 25 -70 25 -124 1z"/>
<path d="M5894 3306 c-97 -43 -109 -193 -20 -247 85 -52 216 17 216 114 0 47
-36 105 -80 127 -45 23 -73 25 -116 6z"/>
<path d="M3413 3303 c9 -2 25 -2 35 0 9 3 1 5 -18 5 -19 0 -27 -2 -17 -5z"/>
<path d="M3359 3295 c-3 -2 -21 -5 -42 -7 -20 -1 -37 -5 -37 -9 0 -9 69 0 90
12 8 5 10 9 4 9 -6 0 -13 -2 -15 -5z"/>
<path d="M7306 3265 c4 -8 8 -15 10 -15 2 0 4 7 4 15 0 8 -4 15 -10 15 -5 0
-7 -7 -4 -15z"/>
<path d="M3005 3250 c-3 -5 1 -10 9 -10 9 0 16 5 16 10 0 6 -4 10 -9 10 -6 0
-13 -4 -16 -10z"/>
<path d="M3055 3250 l-20 -9 20 0 c11 0 29 4 40 9 l20 9 -20 0 c-11 0 -29 -4
-40 -9z"/>
<path d="M7103 3253 c9 -2 25 -2 35 0 9 3 1 5 -18 5 -19 0 -27 -2 -17 -5z"/>
<path d="M7191 3246 c2 -2 24 -6 48 -9 29 -4 40 -2 30 4 -13 8 -88 14 -78 5z"/>
<path d="M3253 3163 c37 -2 97 -2 135 0 37 2 6 3 -68 3 -74 0 -105 -1 -67 -3z"/>
<path d="M6910 3160 c41 -4 125 -7 185 -7 l110 0 -90 8 c-49 4 -133 7 -185 6
l-95 0 75 -7z"/>
<path d="M3098 3153 c7 -3 16 -2 19 1 4 3 -2 6 -13 5 -11 0 -14 -3 -6 -6z"/>
<path d="M3515 3150 c28 -5 64 -8 80 -8 l30 0 -30 8 c-16 4 -52 8 -80 7 l-50
0 50 -7z"/>
<path d="M6708 3153 c12 -2 30 -2 40 0 9 3 -1 5 -23 4 -22 0 -30 -2 -17 -4z"/>
<path d="M3298 3138 c16 -8 28 -8 45 0 19 9 17 11 -23 11 -40 0 -42 -2 -22
-11z"/>
<path d="M6618 3143 c7 -3 16 -2 19 1 4 3 -2 6 -13 5 -11 0 -14 -3 -6 -6z"/>
<path d="M6798 3143 c12 -2 32 -2 45 0 12 2 2 4 -23 4 -25 0 -35 -2 -22 -4z"/>
<path d="M6878 3143 c7 -3 16 -2 19 1 4 3 -2 6 -13 5 -11 0 -14 -3 -6 -6z"/>
<path d="M6938 3123 c7 -3 16 -2 19 1 4 3 -2 6 -13 5 -11 0 -14 -3 -6 -6z"/>
<path d="M4878 2763 c6 -2 18 -2 25 0 6 3 1 5 -13 5 -14 0 -19 -2 -12 -5z"/>
<path d="M5330 2766 c0 -2 9 -6 20 -9 11 -3 18 -1 14 4 -5 9 -34 13 -34 5z"/>
<path d="M4928 2753 c6 -2 18 -2 25 0 6 3 1 5 -13 5 -14 0 -19 -2 -12 -5z"/>
<path d="M4928 2733 c6 -2 18 -2 25 0 6 3 1 5 -13 5 -14 0 -19 -2 -12 -5z"/>
</g>
</svg>
